<?xml version="1.0" standalone="no"?>
<!DOCTYPE svg PUBLIC "-//W3C//DTD SVG 20010904//EN"
 "http://www.w3.org/TR/2001/REC-SVG-20010904/DTD/svg10.dtd">
<svg version="1.0" xmlns="http://www.w3.org/2000/svg"
 width="901.000000pt" height="901.000000pt" viewBox="0 0 901.000000 901.000000"
 preserveAspectRatio="xMidYMid meet">
<metadata>
Created by potrace 1.14, written by Peter Selinger 2001-2017
</metadata>
<g transform="translate(0.000000,901.000000) scale(0.100000,-0.100000)"
fill="#000000" stroke="none">
<path d="M3725 8975 c-49 -14 -101 -28 -115 -31 -14 -3 -42 -9 -63 -15 -28 -7
-42 -7 -53 2 -30 25 -99 -2 -364 -143 -58 -31 -143 -71 -190 -88 -47 -17 -94
-35 -105 -40 -11 -4 -58 -22 -105 -40 -47 -18 -94 -36 -105 -41 -11 -5 -56
-22 -100 -38 -176 -64 -250 -93 -291 -111 -24 -11 -47 -20 -52 -20 -13 0 -139
-67 -187 -100 -104 -70 -225 -156 -269 -193 -53 -45 -179 -185 -266 -297 -45
-58 -60 -76 -90 -114 -14 -17 -46 -58 -70 -91 -25 -33 -47 -62 -50 -65 -3 -3
-19 -23 -35 -45 -16 -22 -80 -96 -142 -163 -62 -68 -134 -157 -160 -199 -101
-158 -139 -213 -258 -373 -146 -198 -211 -309 -263 -450 -34 -90 -66 -154
-100 -195 -24 -29 -65 -177 -78 -280 -3 -28 -7 -162 -9 -300 -3 -249 -6 -286
-24 -394 -6 -31 -13 -76 -16 -101 -3 -25 -8 -56 -10 -70 -3 -14 -7 -61 -9
-105 -13 -202 -18 -272 -22 -295 -19 -121 -25 -555 -10 -805 5 -77 10 -291 11
-475 2 -284 5 -344 19 -395 10 -33 21 -64 26 -70 4 -5 11 -36 14 -68 14 -117
100 -338 178 -453 43 -64 220 -244 373 -379 50 -44 110 -99 135 -122 87 -80
116 -104 199 -166 47 -34 123 -101 170 -148 47 -47 106 -99 131 -116 63 -43
201 -114 295 -152 118 -48 264 -124 389 -201 61 -38 116 -74 123 -79 7 -6 15
-11 18 -11 3 0 28 -16 55 -35 27 -19 51 -35 53 -35 2 0 42 -23 88 -51 46 -28
131 -73 189 -101 348 -167 844 -393 990 -449 41 -16 84 -34 95 -39 31 -14 287
-95 332 -105 10 -2 34 -9 53 -15 55 -17 257 -48 354 -55 50 -4 97 -8 105 -10
9 -1 45 -6 81 -10 36 -4 79 -9 95 -11 146 -20 693 -19 1190 1 77 3 154 8 170
10 17 3 46 7 65 10 120 19 238 84 330 180 239 252 295 303 365 337 102 48 189
105 252 164 6 6 46 33 88 60 42 27 134 90 206 139 71 50 168 115 216 145 102
64 264 220 337 324 57 80 306 576 394 781 33 77 76 187 97 245 51 142 197 507
255 635 101 222 211 622 255 928 24 169 24 390 0 602 -12 112 -17 151 -21 169
-2 12 -6 41 -9 66 -14 107 -18 137 -40 245 -11 56 -11 56 -40 195 -14 69 -28
141 -31 160 -3 19 -7 44 -9 55 -1 11 -17 74 -34 140 -17 66 -35 143 -41 170
-6 28 -25 77 -41 109 -33 62 -105 236 -143 346 -13 36 -35 90 -49 120 -14 30
-33 84 -42 119 -20 82 -93 221 -153 293 -26 30 -84 100 -130 155 -80 98 -131
149 -223 223 -24 19 -145 137 -269 261 -252 252 -302 297 -445 395 -127 88
-117 82 -400 223 -275 136 -263 131 -495 218 -96 36 -193 73 -215 84 -60 27
-152 61 -445 164 -295 103 -456 164 -575 220 -151 69 -223 96 -430 159 -44 13
-114 36 -155 51 -64 24 -93 28 -205 30 -71 2 -163 11 -204 19 -133 29 -234 29
-336 1z"/>
</g>
</svg>
